<svg data-v-423bf9ae="" xmlns="http://www.w3.org/2000/svg" viewBox="0 0 424 171" class="iconLeft"><!----><!----><!----><g data-v-423bf9ae="" id="cb433dc8-2600-4e17-bba6-63fb6b135809" fill="#08374E" transform="matrix(4.282655467811312,0,0,4.282655467811312,184.5327885668213,43.43073672547224)"><path d="M0.83 16.61L0.83 5.63L2.84 5.63L2.95 7L3.03 7Q3.25 6.30 3.81 5.89Q4.38 5.48 5.11 5.48L5.11 5.48Q5.97 5.48 6.59 5.94Q7.21 6.41 7.54 7.36Q7.87 8.31 7.87 9.71L7.87 9.71Q7.87 11.10 7.55 12.06Q7.23 13.01 6.65 13.48Q6.08 13.96 5.33 13.96L5.33 13.96Q4.50 13.96 3.97 13.60Q3.44 13.24 3.19 12.56L3.19 12.56L3.10 12.56L3.10 16.61L0.83 16.61ZM4.31 12.02Q5.50 12.02 5.50 9.67L5.50 9.67Q5.50 7.41 4.31 7.41L4.31 7.41Q3.74 7.41 3.43 7.99Q3.12 8.58 3.12 9.67L3.12 9.67Q3.12 10.81 3.43 11.42Q3.74 12.02 4.31 12.02L4.31 12.02ZM9.07 13.78L9.07 5.63L11.03 5.63L11.16 6.90L11.24 6.90Q11.38 6.47 11.63 6.16Q11.89 5.84 12.19 5.68Q12.49 5.51 12.78 5.51L12.78 5.51Q13.23 5.51 13.44 5.64L13.44 5.64L13.44 7.81Q13.10 7.72 12.83 7.72L12.83 7.72Q12.16 7.72 11.78 8.23Q11.40 8.74 11.40 9.84L11.40 9.84L11.40 13.78L9.07 13.78ZM18.56 2.80L20.90 2.80L20.90 13.78L18.77 13.78L18.68 12.56L18.61 12.56Q18.42 13.19 17.88 13.58Q17.35 13.96 16.67 13.96L16.67 13.96Q15.83 13.96 15.20 13.49Q14.56 13.02 14.21 12.07Q13.85 11.12 13.85 9.71L13.85 9.71Q13.85 8.28 14.20 7.33Q14.55 6.38 15.18 5.93Q15.80 5.48 16.62 5.48L16.62 5.48Q17.29 5.48 17.78 5.85Q18.27 6.23 18.49 6.89L18.49 6.89L18.56 6.89L18.56 2.80ZM17.42 12.01Q17.99 12.01 18.29 11.41Q18.60 10.81 18.60 9.69L18.60 9.69Q18.60 8.61 18.29 8.02Q17.99 7.43 17.42 7.43L17.42 7.43Q16.86 7.43 16.53 8.00Q16.19 8.57 16.19 9.69L16.19 9.69Q16.19 10.85 16.53 11.43Q16.86 12.01 17.42 12.01L17.42 12.01ZM25.70 12.13Q26.10 12.13 26.39 11.93Q26.67 11.74 26.86 11.33L26.86 11.33L28.51 11.83Q28.13 12.99 27.38 13.47Q26.64 13.95 25.58 13.95L25.58 13.95Q24.55 13.95 23.75 13.47Q22.95 12.98 22.50 12.03Q22.05 11.09 22.05 9.75L22.05 9.75Q22.05 7.75 22.87 6.61Q23.70 5.48 25.38 5.48L25.38 5.48Q26.99 5.48 27.77 6.48Q28.56 7.49 28.56 9.25L28.56 9.25Q28.56 9.88 28.49 10.26L28.49 10.26L24.29 10.26Q24.28 10.82 24.46 11.25Q24.63 11.67 24.95 11.90Q25.28 12.13 25.70 12.13L25.70 12.13ZM25.47 7.21Q24.37 7.21 24.33 8.82L24.33 8.82L26.63 8.82Q26.59 8.05 26.35 7.63Q26.10 7.21 25.47 7.21L25.47 7.21ZM29.76 16.61L29.76 5.63L31.78 5.63L31.89 7L31.96 7Q32.19 6.30 32.75 5.89Q33.31 5.48 34.04 5.48L34.04 5.48Q34.90 5.48 35.52 5.94Q36.14 6.41 36.47 7.36Q36.80 8.31 36.80 9.71L36.80 9.71Q36.80 11.10 36.48 12.06Q36.16 13.01 35.59 13.48Q35.02 13.96 34.27 13.96L34.27 13.96Q33.44 13.96 32.91 13.60Q32.38 13.24 32.12 12.56L32.12 12.56L32.04 12.56L32.04 16.61L29.76 16.61ZM33.24 12.02Q34.44 12.02 34.44 9.67L34.44 9.67Q34.44 7.41 33.24 7.41L33.24 7.41Q32.68 7.41 32.37 7.99Q32.06 8.58 32.06 9.67L32.06 9.67Q32.06 10.81 32.37 11.42Q32.68 12.02 33.24 12.02L33.24 12.02ZM38.01 13.78L38.01 2.80L40.35 2.80L40.35 13.78L38.01 13.78ZM44.95 13.96Q43.33 13.96 42.43 12.91Q41.53 11.85 41.53 9.73L41.53 9.73Q41.53 7.57 42.42 6.52Q43.32 5.48 44.95 5.48L44.95 5.48Q46.58 5.48 47.47 6.52Q48.35 7.57 48.35 9.73L48.35 9.73Q48.35 11.86 47.46 12.91Q46.57 13.96 44.95 13.96L44.95 13.96ZM44.93 12.22Q45.32 12.22 45.58 12.00Q45.84 11.79 45.99 11.24Q46.13 10.69 46.13 9.72L46.13 9.72Q46.13 8.73 45.99 8.18Q45.84 7.62 45.58 7.41Q45.32 7.20 44.93 7.20L44.93 7.20Q44.55 7.20 44.30 7.41Q44.04 7.62 43.90 8.18Q43.76 8.73 43.76 9.72L43.76 9.72Q43.76 10.68 43.90 11.23Q44.04 11.79 44.30 12.00Q44.55 12.22 44.93 12.22L44.93 12.22ZM50.78 16.81Q50.26 16.81 49.92 16.75Q49.57 16.69 49.25 16.57L49.25 16.57L49.68 15.10Q50.01 15.19 50.38 15.19L50.38 15.19Q50.92 15.19 51.19 14.85Q51.45 14.51 51.58 13.78L51.58 13.78L50.87 13.78L48.72 5.63L51.12 5.63L51.82 9.24L52.23 11.89L52.25 11.89L52.66 9.24L53.37 5.63L55.75 5.63L53.60 13.78Q52.80 16.81 50.78 16.81L50.78 16.81Z"></path></g><defs data-v-423bf9ae=""><linearGradient data-v-423bf9ae="" gradientTransform="rotate(25)" id="d40d4495-3646-4289-b42a-552e82c8d46c" x1="0%" y1="0%" x2="100%" y2="0%"><stop data-v-423bf9ae="" offset="0%" style="stop-color: rgb(13, 124, 233); stop-opacity: 1;"></stop><stop data-v-423bf9ae="" offset="100%" style="stop-color: rgb(21, 207, 241); stop-opacity: 1;"></stop></linearGradient></defs><g data-v-423bf9ae="" id="655320cd-1c35-4167-af68-0a601a4b6617" transform="matrix(1.377777353922526,0,0,1.377777353922526,-3.1770142716538032,-2.1777429262669727)" stroke="none" fill="url(#d40d4495-3646-4289-b42a-552e82c8d46c)"><path d="M6.429 124.726a2.142 2.142 0 01-1.487-.598 2.124 2.124 0 01-.052-3.013l29.311-30.203a2.15 2.15 0 013.027-.052c.85.817.874 2.166.052 3.013L7.969 124.076c-.42.432-.979.65-1.54.65zM27.054 126a2.132 2.132 0 01-1.42-.538 2.124 2.124 0 01-.179-3.008l18.997-21.279a2.149 2.149 0 013.022-.177c.884.782.964 2.128.179 3.008l-18.997 21.279a2.145 2.145 0 01-1.602.715zM5.139 105.605a2.132 2.132 0 01-1.42-.538 2.124 2.124 0 01-.179-3.008L22.538 80.78a2.149 2.149 0 013.022-.177c.884.782.964 2.128.179 3.008L6.741 104.89a2.145 2.145 0 01-1.602.715z"></path><g><path d="M76.384 82.589a213.246 213.246 0 01-10.963 4.707l1.358 17.566c5.524-2.506 18.341-10.283 28.504-31.399-4.387 2.329-8.775 4.424-12.522 6.212a212.84 212.84 0 01-6.377 2.914zM86.461 32.591a7.685 7.685 0 00-5.419 2.216 7.463 7.463 0 00-2.237 5.339c0 2.016.794 3.912 2.238 5.339 2.988 2.955 7.851 2.954 10.837 0l.001-.001a7.464 7.464 0 002.238-5.339 7.46 7.46 0 00-2.238-5.339 7.686 7.686 0 00-5.42-2.215zM49.156 39.02c1.19-2.386 2.461-4.88 3.822-7.387-21.333 10.034-29.214 22.688-31.761 28.164l17.628 1.332a208.44 208.44 0 016.041-13.535c1.327-2.717 2.746-5.619 4.27-8.574zM94.322 4.716l27.95 27.638c1.368-5.402 2.112-10.817 2.464-15.889.029-.425.059-.849.083-1.278a106.743 106.743 0 00.156-4.084 122.736 122.736 0 00.006-4.52c-.004-.23-.01-.455-.016-.682a121.57 121.57 0 00-.143-3.688c-8.147-.49-19.289-.317-30.5 2.503z"></path><path d="M109.709 56.969a47.303 47.303 0 001.65-1.911c.07-.086.146-.17.215-.257a49.033 49.033 0 001.631-2.167 51.017 51.017 0 002.467-3.807 55.713 55.713 0 001.525-2.763c.167-.326.325-.661.487-.992.429-.881.841-1.769 1.224-2.666l.179-.425a65.044 65.044 0 001.833-4.955L89.611 6.064c-7.978 2.575-14.739 6.353-20.17 11.245a45.26 45.26 0 00-2.484 2.4c-.235.248-.462.511-.693.767-5.23 5.781-9.608 13.326-13.346 20.581a649.62 649.62 0 00-2.36 4.797 204.4 204.4 0 00-7.884 18.293 2.115 2.115 0 01-.835 1.031 194.222 194.222 0 00-4.453 12.67l11.028 10.906a199.684 199.684 0 0013.164-4.535c.227-.25.495-.467.83-.589a208.414 208.414 0 0012.284-4.956c.819-.38 1.639-.758 2.454-1.149 10.344-4.892 22.058-10.432 30.082-18.013a45.492 45.492 0 002.481-2.543zm-14.811-8.462a11.961 11.961 0 01-8.437 3.451c-3.055 0-6.11-1.15-8.436-3.45a11.68 11.68 0 01-3.501-8.362c0-3.16 1.244-6.129 3.5-8.362 4.653-4.601 12.222-4.599 16.873-.001a11.678 11.678 0 013.502 8.362c0 3.159-1.243 6.129-3.501 8.362z"></path></g></g><!----></svg>